<svg width="40" height="41" viewBox="0 0 40 41" fill="none" xmlns="http://www.w3.org/2000/svg">
<path d="M19.9983 12.795C17.9544 12.795 15.9942 13.607 14.5489 15.0523C13.1036 16.4976 12.2917 18.4578 12.2917 20.5017C12.2917 22.5456 13.1036 24.5059 14.5489 25.9511C15.9942 27.3964 17.9544 28.2084 19.9983 28.2084C22.0423 28.2084 24.0025 27.3964 25.4478 25.9511C26.8931 24.5059 27.705 22.5456 27.705 20.5017C27.705 18.4578 26.8931 16.4976 25.4478 15.0523C24.0025 13.607 22.0423 12.795 19.9983 12.795ZM19.9983 25.5067C18.6705 25.5067 17.397 24.9792 16.4581 24.0403C15.5192 23.1014 14.9917 21.8279 14.9917 20.5C14.9917 19.1722 15.5192 17.8987 16.4581 16.9598C17.397 16.0209 18.6705 15.4934 19.9983 15.4934C21.3262 15.4934 22.5997 16.0209 23.5386 16.9598C24.4775 17.8987 25.005 19.1722 25.005 20.5C25.005 21.8279 24.4775 23.1014 23.5386 24.0403C22.5997 24.9792 21.3262 25.5067 19.9983 25.5067Z" fill="#F0F0F0"/>
<path d="M28.01 14.3083C29.0023 14.3083 29.8067 13.5039 29.8067 12.5116C29.8067 11.5194 29.0023 10.715 28.01 10.715C27.0177 10.715 26.2133 11.5194 26.2133 12.5116C26.2133 13.5039 27.0177 14.3083 28.01 14.3083Z" fill="#F0F0F0"/>
<path d="M34.2217 10.685C33.8358 9.6886 33.2462 8.78377 32.4905 8.0284C31.7349 7.27303 30.8298 6.68375 29.8333 6.2983C28.6672 5.86056 27.4353 5.62387 26.19 5.5983C24.585 5.5283 24.0767 5.5083 20.0067 5.5083C15.9367 5.5083 15.415 5.5083 13.8233 5.5983C12.579 5.62256 11.3479 5.8593 10.1833 6.2983C9.18655 6.6833 8.28127 7.27242 7.52555 8.02785C6.76983 8.78328 6.18037 9.68834 5.79499 10.685C5.35717 11.851 5.12102 13.083 5.09666 14.3283C5.02499 15.9316 5.00333 16.44 5.00333 20.5116C5.00333 24.5816 5.00333 25.1 5.09666 26.695C5.12166 27.9416 5.35666 29.1716 5.79499 30.34C6.18146 31.3362 6.77149 32.2409 7.52739 32.9963C8.28329 33.7516 9.18843 34.3409 10.185 34.7266C11.3474 35.182 12.5789 35.4356 13.8267 35.4766C15.4317 35.5466 15.94 35.5683 20.01 35.5683C24.08 35.5683 24.6017 35.5683 26.1933 35.4766C27.4385 35.4513 28.6704 35.2152 29.8367 34.7783C30.8329 34.392 31.7377 33.8022 32.4933 33.0466C33.2489 32.291 33.8386 31.3862 34.225 30.39C34.6633 29.2233 34.8983 27.9933 34.9233 26.7466C34.995 25.1433 35.0167 24.635 35.0167 20.5633C35.0167 16.4916 35.0167 15.975 34.9233 14.38C34.9039 13.1171 34.6665 11.867 34.2217 10.685ZM32.1917 26.5716C32.1809 27.5321 32.0056 28.4837 31.6733 29.385C31.423 30.0331 31.0399 30.6216 30.5484 31.1128C30.057 31.6039 29.4683 31.9867 28.82 32.2366C27.9287 32.5674 26.9873 32.7427 26.0367 32.755C24.4533 32.8283 24.0067 32.8466 19.9467 32.8466C15.8833 32.8466 15.4683 32.8466 13.855 32.755C12.9049 32.7433 11.9639 32.568 11.0733 32.2366C10.4228 31.9883 9.83166 31.6061 9.33814 31.1149C8.84462 30.6237 8.45972 30.0343 8.20833 29.385C7.88074 28.4934 7.70551 27.553 7.68999 26.6033C7.61833 25.02 7.60166 24.5733 7.60166 20.5133C7.60166 16.4516 7.60166 16.0366 7.68999 14.4216C7.70077 13.4617 7.87608 12.5107 8.20833 11.61C8.71666 10.295 9.75833 9.25997 11.0733 8.75663C11.9643 8.42687 12.905 8.25157 13.855 8.2383C15.44 8.16663 15.885 8.14663 19.9467 8.14663C24.0083 8.14663 24.425 8.14663 26.0367 8.2383C26.9873 8.24974 27.9289 8.42509 28.82 8.75663C29.4682 9.00709 30.0569 9.3903 30.5483 9.88169C31.0397 10.3731 31.4229 10.9618 31.6733 11.61C32.0009 12.5016 32.1761 13.4419 32.1917 14.3916C32.2633 15.9766 32.2817 16.4216 32.2817 20.4833C32.2817 24.5433 32.2817 24.98 32.21 26.5733H32.1917V26.5716Z" fill="#F0F0F0"/>
</svg>
